<svg width="25" height="21" viewBox="0 0 25 21" fill="none" xmlns="http://www.w3.org/2000/svg">
<path fill-rule="evenodd" clip-rule="evenodd" d="M23.826 0.997742C22.87 1.56474 21.81 1.97574 20.683 2.19874C19.78 1.23574 18.495 0.635742 17.072 0.635742C14.34 0.635742 12.124 2.85174 12.124 5.58274C12.124 5.96974 12.168 6.34874 12.252 6.70974C8.14002 6.50374 4.49502 4.53374 2.05502 1.53974C1.62802 2.26974 1.38602 3.11974 1.38602 4.02774C1.38602 5.74374 2.26002 7.25874 3.58602 8.14474C2.77502 8.11774 2.01302 7.89474 1.34502 7.52374V7.58574C1.34502 9.98274 3.05102 11.9827 5.31302 12.4377C4.89802 12.5507 4.46202 12.6117 4.01002 12.6117C3.68902 12.6117 3.38102 12.5797 3.07802 12.5227C3.70802 14.4877 5.53402 15.9187 7.69902 15.9587C6.00702 17.2857 3.87202 18.0767 1.55402 18.0767C1.15402 18.0767 0.762023 18.0527 0.374023 18.0077C2.56302 19.4107 5.16402 20.2307 7.95802 20.2307C17.058 20.2307 22.035 12.6907 22.035 6.15274C22.035 5.93874 22.031 5.72474 22.02 5.51174C22.989 4.81674 23.829 3.94574 24.492 2.95374C23.604 3.34774 22.652 3.61374 21.651 3.73374C22.673 3.12174 23.457 2.15074 23.826 0.997742Z" fill="#2699BC"/>
</svg>
