<svg width="40" height="42" viewBox="0 0 40 42" fill="none" xmlns="http://www.w3.org/2000/svg">
<path d="M30.2125 19.392C34.0546 19.392 37.1693 15.4986 37.1693 10.696C37.1693 5.89332 34.0546 2 30.2125 2C26.3703 2 23.2557 5.89332 23.2557 10.696C23.2557 15.4986 26.3703 19.392 30.2125 19.392ZM30.2125 19.392V39.6825M9.632 2V39.6826M16.8786 2V9.24665C16.8786 10.1983 16.6912 11.1406 16.327 12.0198C15.9628 12.899 15.429 13.6979 14.7561 14.3708C14.0832 15.0437 13.2843 15.5775 12.4051 15.9417C11.5259 16.3059 10.5836 16.4933 9.632 16.4933C7.71 16.4933 5.8668 15.7298 4.50781 14.3708C3.1488 13.0118 2.38531 11.1686 2.38531 9.24665V2" stroke="#929292" stroke-width="3.71" stroke-linecap="round" stroke-linejoin="round"/>
</svg>
