<svg width="39" height="39" viewBox="0 0 39 39" fill="none" xmlns="http://www.w3.org/2000/svg">
<path d="M2.39059 27.1639H36.5631V32.0457C36.5631 33.3405 36.0488 34.5822 35.1333 35.4977C34.2177 36.4132 32.976 36.9275 31.6813 36.9275H7.2724C5.9776 36.9275 4.73595 36.4132 3.82043 35.4977C2.90492 34.5822 2.39059 33.3405 2.39059 32.0457V27.1639Z" stroke="#929292" stroke-width="3.89088" stroke-linecap="round" stroke-linejoin="round"/>
<path d="M12.1542 2.75513H26.7995C29.389 2.75513 31.8724 3.78379 33.7034 5.61481C35.5344 7.44584 36.5631 9.92924 36.5631 12.5187V17.4005H2.39059V12.5187C2.39059 9.92924 3.41925 7.44584 5.2503 5.61481C7.0813 3.78379 9.5647 2.75513 12.1542 2.75513Z" stroke="#929292" stroke-width="3.89088" stroke-linecap="round" stroke-linejoin="round"/>
</svg>
