<svg width="42" height="45" viewBox="0 0 42 45" fill="none" xmlns="http://www.w3.org/2000/svg">
<path d="M37.2063 29.2201C32.1681 31.6656 26.6408 32.9361 21.0405 32.9361C15.4402 32.9361 9.9129 31.6656 4.87476 29.2201M16.413 23.6979V25.2404M25.6682 23.6979V25.2404M21.0405 14.4426V15.9852M18.3565 3.64478L2.53014 33.4157C2.31033 33.8262 2.17424 34.2764 2.12978 34.7399C2.08531 35.2035 2.13335 35.6713 2.27111 36.1161C2.40887 36.561 2.63361 36.974 2.93228 37.3313C3.23095 37.6886 3.59761 37.9831 4.01098 38.1976C9.2738 40.8501 15.0853 42.2319 20.9789 42.2319C26.8724 42.2319 32.6839 40.8501 37.9467 38.1976C38.3707 37.9941 38.7495 37.7076 39.0608 37.3551C39.3721 37.0027 39.6096 36.5914 39.7591 36.1456C39.9087 35.6997 39.9673 35.2284 39.9316 34.7595C39.8958 34.2906 39.7664 33.8337 39.551 33.4157L23.7246 3.64478C23.4555 3.17 23.0653 2.77508 22.5938 2.50033C22.1222 2.22557 21.5863 2.08081 21.0406 2.08081C20.4948 2.08081 19.9589 2.22557 19.4873 2.50033C19.0158 2.77508 18.6256 3.17 18.3565 3.64478Z" stroke="#929292" stroke-width="3.89088" stroke-linecap="round" stroke-linejoin="round"/>
</svg>
