<?xml version="1.0" standalone="no"?>
<!DOCTYPE svg PUBLIC "-//W3C//DTD SVG 1.1//EN" "http://www.w3.org/Graphics/SVG/1.1/DTD/svg11.dtd" >
<svg xmlns="http://www.w3.org/2000/svg" xmlns:xlink="http://www.w3.org/1999/xlink" version="1.1">
<metadata></metadata>
<defs>
<font id="viper_squadronitalic" horiz-adv-x="1413" >
<font-face units-per-em="2048" ascent="1638" descent="-410" />
<missing-glyph horiz-adv-x="512" />
<glyph horiz-adv-x="0" />
<glyph unicode="&#xd;" horiz-adv-x="512" />
<glyph unicode=" "  horiz-adv-x="512" />
<glyph unicode="&#x09;" horiz-adv-x="512" />
<glyph unicode="&#xa0;" horiz-adv-x="512" />
<glyph unicode="A" horiz-adv-x="1617" d="M0 0l51 143h268l893 1106h21l84 -1065h-635l-10 144h469l-45 573l-727 -901h-369zM68 184l51 144h145l893 1106h266l113 -1434h-840l-10 143h674l-90 1147h-66l-891 -1106h-245z" />
<glyph unicode="B" d="M0 0l522 1434h891q141 0 224 -81t83 -210q0 -72 -26 -150q-49 -131 -219 -276q36 -82 36 -160q0 -62 -20 -117q-66 -182 -242 -311t-358 -129h-891zM195 143h747q123 0 242 87t164 210q20 53 20 103q0 125 -106 174q96 33 175 108.5t113 167.5q18 51 19 101 q0 88 -56.5 142t-152.5 54h-748zM252 184l387 1065h707q82 0 130 -47t48 -123q0 -41 -15 -86q-39 -106 -141 -181t-209 -75h-442l117 144h378q55 0 107.5 47t52.5 104q0 74 -78 74h-563l-285 -778h564q57 0 109 47t52 104q0 74 -79 74h-523l115 143h461q82 0 131 -47 t49 -121q0 -43 -18 -88q-39 -106 -141.5 -181t-207.5 -75h-706z" />
<glyph unicode="C" horiz-adv-x="1310" d="M215 473q0 117 45 244q109 297 395.5 507t583.5 210h512l-53 -144h-512q-238 0 -466 -168t-317 -405q-36 -97 -36 -192v-5q0 -166 109.5 -271.5t291.5 -105.5h512l-51 -143h-512q-229 0 -365.5 131t-136.5 342zM412 535q0 88 32 182q82 221 294 376.5t433 155.5h512 l-51 -143h-512q-162 0 -317.5 -113.5t-214.5 -275.5q-25 -70 -25 -133q0 -113 75 -184.5t198 -71.5h512l-52 -144h-512q-170 0 -271 97.5t-101 253.5z" />
<glyph unicode="D" d="M0 0l522 1434h615q229 0 365 -131.5t136 -341.5q0 -117 -47 -244q-106 -297 -393 -507t-584 -210h-614zM195 143h471q238 0 467 168t315 406q37 100 37 196q0 166 -108.5 271.5t-293.5 105.5h-471zM252 184l387 1065h430q170 0 271.5 -97t101.5 -253q0 -88 -35 -182 q-80 -221 -293 -377t-432 -156h-430zM446 328h287q162 0 318 113.5t213 275.5q26 68 26 128q0 117 -74.5 189t-197.5 72h-287z" />
<glyph unicode="E" horiz-adv-x="1310" d="M0 0l522 1434h1229l-53 -144h-1086l-417 -1147h1085l-51 -143h-1229zM252 184l186 512h840l-53 -143h-697l-82 -225h902l-52 -144h-1044zM453 737l186 512h1044l-51 -143h-901l-82 -225h697l-54 -144h-839z" />
<glyph unicode="F" horiz-adv-x="1310" d="M0 0l522 1434h1229l-53 -144h-1086l-469 -1290h-143zM184 0l254 696h840l-53 -143h-697l-200 -553h-144zM453 737l186 512h1044l-51 -143h-901l-82 -225h697l-54 -144h-839z" />
<glyph unicode="G" horiz-adv-x="1515" d="M215 473q0 117 45 244q109 297 395.5 507t583.5 210h717l-53 -144h-717q-238 0 -466 -168t-317 -405q-36 -97 -36 -192v-5q0 -166 109.5 -271.5t291.5 -105.5h573l218 594h-469l-11 144h676l-321 -881h-717q-229 0 -365.5 131t-136.5 342zM412 535q0 88 32 182 q82 221 294 376.5t433 155.5h717l-51 -143h-717q-162 0 -317.5 -113.5t-214.5 -275.5q-25 -70 -25 -133q0 -113 75 -184.5t198 -71.5h389l82 225h-205l-10 143h411l-186 -512h-533q-170 0 -271 97.5t-101 253.5z" />
<glyph unicode="H" d="M0 0l522 1434h144l-523 -1434h-143zM184 0l523 1434h143l-522 -1434h-144zM569 553l115 143h717l-254 -696h-143l200 553h-635zM717 737l117 144h491l201 553h143l-254 -697h-698zM1188 0l522 1434h143l-522 -1434h-143z" />
<glyph unicode="I" horiz-adv-x="409" d="M0 0l522 1434h144l-523 -1434h-143zM184 0l523 1434h143l-522 -1434h-144z" />
<glyph unicode="J" horiz-adv-x="747" d="M-150 -410l54 144q221 0 436 174q209 168 295 399l409 1127h144l-410 -1127q-106 -291 -372 -502q-274 -215 -556 -215zM-82 -225l51 143q147 0 289 119q135 115 193 270l409 1127h144l-410 -1127q-80 -215 -272 -370q-199 -162 -404 -162z" />
<glyph unicode="K" d="M0 0l522 1434h144l-523 -1434h-143zM184 0l170 467l439 324l309 -791h-180l-224 573l-221 -163l-149 -410h-144zM373 516l334 918h143l-205 -566l758 566h201zM831 819l822 615h200l-837 -623l315 -811h-180z" />
<glyph unicode="L" horiz-adv-x="1310" d="M0 0l522 1434h144l-471 -1291h1085l-51 -143h-1229zM252 184l455 1250h143l-404 -1106h902l-52 -144h-1044z" />
<glyph unicode="M" horiz-adv-x="1617" d="M0 0l522 1434h328l119 -881l762 881h327l-522 -1434h-143l469 1290h-72l-944 -1075l-162 1075h-72l-469 -1290h-143zM184 0l455 1249h10l170 -1106l977 1106h10l-454 -1249h-144l236 649l-574 -649h-204l-103 649l-235 -649h-144z" />
<glyph unicode="N" d="M0 0l522 1434h328l379 -813l297 813h143l-455 -1250h-10l-520 1106h-72l-469 -1290h-143zM184 0l455 1249h10l518 -1106h72l471 1291h143l-522 -1434h-327l-379 813l-297 -813h-144z" />
<glyph unicode="O" horiz-adv-x="1515" d="M215 473q0 117 45 244q109 297 395.5 507t583.5 210q229 0 365.5 -131.5t136.5 -339.5q0 -119 -47 -246q-106 -297 -393 -507t-584 -210q-229 0 -365.5 131t-136.5 342zM367 522q0 -168 109.5 -273.5t291.5 -105.5q238 0 467 168t315 406q37 100 37 196 q0 166 -108.5 271.5t-292.5 105.5q-236 0 -465 -168t-318 -405q-36 -97 -36 -190v-5zM412 535q0 88 32 182q82 221 295 376.5t432 155.5q170 0 271.5 -97t101.5 -253q0 -88 -35 -182q-80 -221 -292.5 -377t-432.5 -156q-170 0 -271 97.5t-101 253.5zM563 584 q0 -113 75 -184.5t198 -71.5q162 0 317.5 113.5t212.5 275.5q27 70 27 133q0 113 -75 184.5t-198 71.5q-162 0 -317.5 -113.5t-214.5 -275.5q-25 -70 -25 -133z" />
<glyph unicode="P" d="M0 0l522 1434h891q141 0 224 -81t83 -210v-5q0 -70 -26 -145q-68 -182 -244 -311t-358 -129h-523l115 143h461q123 0 241.5 87t163.5 210q18 51 19 101q0 88 -56.5 142t-152.5 54h-748l-469 -1290h-143zM184 0l455 1249h707q82 0 130 -47t48 -123q-1 -41 -15 -86 q-39 -106 -141 -181t-209 -75h-442l117 144h378q55 0 107.5 47t52.5 104q0 74 -78 74h-563l-403 -1106h-144z" />
<glyph unicode="Q" horiz-adv-x="1515" d="M215 473q0 117 45 244q109 297 395.5 507t583.5 210q229 0 365.5 -131.5t136.5 -339.5q0 -119 -47 -246q-76 -211 -256 -389h114l-51 -144h-504q184 63 337 209t216 324q37 100 37 196q0 166 -108.5 271.5t-292.5 105.5q-236 0 -465 -168t-318 -405q-36 -97 -36 -192v-5 q0 -166 109.5 -271.5t291.5 -105.5h717l-51 -143h-717q-229 0 -365.5 131t-136.5 342zM412 535q0 88 32 182q82 221 295 376.5t432 155.5q170 0 271.5 -97t101.5 -253q0 -88 -35 -182q-80 -221 -292.5 -377t-432.5 -156q-170 0 -271 97.5t-101 253.5zM563 584 q0 -113 75 -184.5t198 -71.5q162 0 317.5 113.5t212.5 275.5q27 70 27 133q0 113 -75 184.5t-198 71.5q-162 0 -317.5 -113.5t-214.5 -275.5q-25 -70 -25 -133z" />
<glyph unicode="R" d="M0 0l522 1434h891q141 0 224 -81t83 -210q0 -72 -26 -150q-68 -182 -244 -311t-358 -129h-74l313 -553h-205l-387 696h406q123 0 241.5 87t163.5 210q18 51 19 101q0 88 -56.5 142t-152.5 54h-748l-469 -1290h-143zM184 0l455 1249h707q82 0 130 -47t48 -123 q-1 -41 -15 -86q-39 -106 -141 -181t-209 -75h-442l117 144h378q55 0 107.5 47t52.5 104q0 74 -78 74h-563l-403 -1106h-144zM569 553l115 143l395 -696h-202z" />
<glyph unicode="S" d="M0 0l51 143h891q125 0 244 87t162 210q18 51 18 101q0 88 -56.5 142t-150.5 54h-450q-82 0 -130.5 47t-48.5 123q0 41 17 86q37 106 139 181t209 75h891l-51 -143h-891q-57 0 -109.5 -47t-52.5 -105q0 -73 78 -73h2h450q139 0 223.5 -81t84.5 -210q0 -72 -29 -150 q-66 -182 -242 -311t-358 -129h-891zM68 184l51 144h891q57 0 109 47t52 104q0 74 -79 74h-451q-139 0 -223 81t-84 210q0 72 28 149q66 182 242 311.5t359 129.5h890l-53 -144h-891q-123 0 -241.5 -87t-161.5 -210q-20 -51 -21 -100q0 -88 56.5 -142.5t152.5 -54.5h451 q82 0 130 -47t48 -123q0 -41 -16 -86q-37 -106 -139.5 -181t-209.5 -75h-890z" />
<glyph unicode="T" d="M403 1106l52 143h645l-455 -1249h-143l403 1106h-502zM469 1290l53 144h1331l-53 -144h-1331zM686 0l455 1249h645l-51 -143h-502l-404 -1106h-143z" />
<glyph unicode="U" d="M211 455q0 127 49 262l262 717h144l-263 -717q-38 -108 -38 -208v-5q0 -160 93 -260.5t259 -100.5q223 0 438 174q209 168 293 400l262 717h143l-262 -717q-104 -291 -370 -502q-274 -215 -555 -215q-213 0 -334 127t-121 328zM408 518q0 96 36 199l263 717h143 l-262 -717q-29 -78 -29 -152q0 -106 59.5 -171.5t165.5 -65.5q147 0 289 118q135 115 191 271l262 717h143l-262 -717q-78 -215 -270 -371q-199 -162 -404 -162q-154 0 -241 97q-84 90 -84 237z" />
<glyph unicode="V" horiz-adv-x="1617" d="M522 1434h164l100 -1291h66l1042 1291h164l-1157 -1434h-266zM727 1434h164l72 -902l727 902h163l-1007 -1250h-21z" />
<glyph unicode="W" horiz-adv-x="2232" d="M522 1434h164l100 -1291h66l502 621l47 -621h65l1043 1291h164l-1157 -1434h-267l-30 393l-318 -393h-266zM727 1434h164l72 -902l223 277l-49 625h163l50 -625l-504 -625h-21zM1341 1434h164l17 -209l168 209h163l-467 -578zM1391 809l503 625h164l-504 -625l23 -277 l727 902h164l-1008 -1250h-20z" />
<glyph unicode="X" horiz-adv-x="1515" d="M0 0l772 717l-250 717h185l249 -717l-772 -717h-184zM225 0l742 688l241 -688h-184l-152 430l-462 -430h-185zM748 1434h184l149 -430l465 430h185l-744 -689zM997 717l775 717h184l-774 -717l252 -717h-185z" />
<glyph unicode="Y" horiz-adv-x="1515" d="M522 1434h185l249 -717l-260 -717h-143l242 666zM737 0l260 717l775 717h184l-834 -768l-241 -666h-144zM748 1434h184l149 -430l465 430h185l-744 -689z" />
<glyph unicode="Z" d="M0 0l119 328l1046 778h-762l52 143h1147l-5 -10l-1376 -1024l-26 -72h1187l-51 -143h-1331zM252 184l4 11l1376 1024l25 71h-1188l53 144h1331l-118 -328l-1047 -778h762l-51 -144h-1147z" />
<glyph unicode="a" horiz-adv-x="1617" d="M0 0l1157 1434h266l113 -1434h-840l-10 143h674l-90 1147h-66l-1040 -1290h-164zM205 0l1007 1249h21l84 -1065h-635l-10 144h469l-45 573l-727 -901h-164z" />
<glyph unicode="b" d="M0 0l522 1434h891q141 0 224 -81t83 -210q0 -72 -26 -150q-49 -131 -219 -276q36 -82 36 -160q0 -62 -20 -117q-66 -182 -242 -311t-358 -129h-891zM195 143h747q123 0 242 87t164 210q20 53 20 103q0 125 -106 174q96 33 175 108.5t113 167.5q18 51 19 101 q0 88 -56.5 142t-152.5 54h-748zM252 184l387 1065h707q82 0 130 -47t48 -123q0 -41 -15 -86q-39 -106 -141 -181t-209 -75h-442l117 144h378q55 0 107.5 47t52.5 104q0 74 -78 74h-563l-285 -778h564q57 0 109 47t52 104q0 74 -79 74h-523l115 143h461q82 0 131 -47 t49 -121q0 -43 -18 -88q-39 -106 -141.5 -181t-207.5 -75h-706z" />
<glyph unicode="c" horiz-adv-x="1310" d="M215 473q0 117 45 244q109 297 395.5 507t583.5 210h512l-115 -144h-450q-238 0 -466 -168t-317 -405q-36 -97 -36 -192v-5q0 -166 109.5 -271.5t291.5 -105.5h512l-51 -143h-512q-229 0 -365.5 131t-136.5 342zM412 535q0 88 32 182q82 221 294 376.5t433 155.5h433 l-115 -143h-369q-162 0 -317.5 -113.5t-214.5 -275.5q-25 -70 -25 -133q0 -113 75 -184.5t198 -71.5h512l-52 -144h-512q-170 0 -271 97.5t-101 253.5z" />
<glyph unicode="d" d="M0 0l522 1434h615q229 0 365 -131.5t136 -341.5q0 -117 -47 -244q-106 -297 -393 -507t-584 -210h-614zM195 143h471q238 0 467 168t315 406q37 100 37 196q0 166 -108.5 271.5t-293.5 105.5h-471zM252 184l387 1065h430q170 0 271.5 -97t101.5 -253q0 -88 -35 -182 q-80 -221 -293 -377t-432 -156h-430zM446 328h287q162 0 318 113.5t213 275.5q26 68 26 128q0 117 -74.5 189t-197.5 72h-287z" />
<glyph unicode="e" horiz-adv-x="1310" d="M0 0l522 1434h1229l-115 -144h-1024l-417 -1147h1085l-51 -143h-1229zM252 184l186 512h840l-53 -143h-697l-82 -225h902l-52 -144h-1044zM453 737l186 512h965l-115 -143h-758l-82 -225h697l-54 -144h-839z" />
<glyph unicode="f" horiz-adv-x="1310" d="M0 0l522 1434h1229l-115 -144h-1024l-469 -1290h-143zM184 0l254 696h840l-53 -143h-697l-200 -553h-144zM453 737l186 512h965l-115 -143h-758l-82 -225h697l-54 -144h-839z" />
<glyph unicode="g" d="M215 473q0 117 45 244q109 297 395.5 507t583.5 210h614l-114 -144h-553q-238 0 -466 -168t-317 -405q-36 -97 -36 -192v-5q0 -166 109.5 -271.5t291.5 -105.5h471l217 594h-452l116 144h533l-322 -881h-614q-229 0 -365.5 131t-136.5 342zM412 535q0 88 32 182 q82 221 294 376.5t433 155.5h535l-115 -143h-471q-162 0 -317.5 -113.5t-214.5 -275.5q-25 -70 -25 -133q0 -113 75 -184.5t198 -71.5h286l82 225h-348l115 143h430l-187 -512h-430q-170 0 -271 97.5t-101 253.5z" />
<glyph unicode="h" d="M0 0l522 1434h144l-523 -1434h-143zM184 0l523 1434h143l-522 -1434h-144zM569 553l115 143h717l-254 -696h-143l200 553h-635zM717 737l117 144h491l201 553h143l-254 -697h-698zM1188 0l522 1434h143l-522 -1434h-143z" />
<glyph unicode="i" horiz-adv-x="409" d="M0 0l522 1434h144l-523 -1434h-143zM184 0l523 1434h143l-522 -1434h-144z" />
<glyph unicode="j" horiz-adv-x="747" d="M-150 -410l54 144q221 0 436 174q209 168 295 399l409 1127h144l-410 -1127q-106 -291 -372 -502q-274 -215 -556 -215zM-82 -225l51 143q147 0 289 119q135 115 193 270l409 1127h144l-410 -1127q-80 -215 -272 -370q-199 -162 -404 -162z" />
<glyph unicode="k" d="M0 0l522 1434h144l-523 -1434h-143zM184 0l170 467l439 324l309 -791h-180l-224 573l-221 -163l-149 -410h-144zM373 516l334 918h143l-205 -566l758 566h201zM831 819l822 615h200l-837 -623l315 -811h-180z" />
<glyph unicode="l" horiz-adv-x="1310" d="M0 0l522 1434h144l-471 -1291h1085l-51 -143h-1229zM252 184l455 1250h143l-404 -1106h902l-52 -144h-1044z" />
<glyph unicode="m" horiz-adv-x="1617" d="M0 0l522 1434h328l119 -881l762 881h327l-522 -1434h-143l469 1290h-72l-944 -1075l-162 1075h-72l-469 -1290h-143zM184 0l455 1249h10l170 -1106l977 1106h10l-454 -1249h-144l236 649l-574 -649h-204l-103 649l-235 -649h-144z" />
<glyph unicode="n" d="M0 0l522 1434h328l379 -813l297 813h143l-455 -1250h-10l-520 1106h-72l-469 -1290h-143zM184 0l455 1249h10l518 -1106h72l471 1291h143l-522 -1434h-327l-379 813l-297 -813h-144z" />
<glyph unicode="o" horiz-adv-x="1515" d="M215 473q0 117 45 244q109 297 395.5 507t583.5 210q229 0 365.5 -131.5t136.5 -339.5q0 -119 -47 -246q-106 -297 -393 -507t-584 -210q-229 0 -365.5 131t-136.5 342zM367 522q0 -168 109.5 -273.5t291.5 -105.5q238 0 467 168t315 406q37 100 37 196 q0 166 -108.5 271.5t-292.5 105.5q-236 0 -465 -168t-318 -405q-36 -97 -36 -190v-5zM412 535q0 88 32 182q82 221 295 376.5t432 155.5q170 0 271.5 -97t101.5 -253q0 -88 -35 -182q-80 -221 -292.5 -377t-432.5 -156q-170 0 -271 97.5t-101 253.5zM563 584 q0 -113 75 -184.5t198 -71.5q162 0 317.5 113.5t212.5 275.5q27 70 27 133q0 113 -75 184.5t-198 71.5q-162 0 -317.5 -113.5t-214.5 -275.5q-25 -70 -25 -133z" />
<glyph unicode="p" d="M0 0l522 1434h891q141 0 224 -81t83 -210v-5q0 -70 -26 -145q-68 -182 -244 -311t-358 -129h-523l115 143h461q123 0 241.5 87t163.5 210q18 51 19 101q0 88 -56.5 142t-152.5 54h-748l-469 -1290h-143zM184 0l455 1249h707q82 0 130 -47t48 -123q-1 -41 -15 -86 q-39 -106 -141 -181t-209 -75h-442l117 144h378q55 0 107.5 47t52.5 104q0 74 -78 74h-563l-403 -1106h-144z" />
<glyph unicode="q" horiz-adv-x="1515" d="M215 473q0 117 45 244q109 297 395.5 507t583.5 210q229 0 365.5 -131.5t136.5 -339.5q0 -119 -47 -246q-76 -211 -256 -389h114l-51 -144h-504q184 63 337 209t216 324q37 100 37 196q0 166 -108.5 271.5t-292.5 105.5q-236 0 -465 -168t-318 -405q-36 -97 -36 -192v-5 q0 -166 109.5 -271.5t291.5 -105.5h717l-51 -143h-717q-229 0 -365.5 131t-136.5 342zM412 535q0 88 32 182q82 221 295 376.5t432 155.5q170 0 271.5 -97t101.5 -253q0 -88 -35 -182q-80 -221 -292.5 -377t-432.5 -156q-170 0 -271 97.5t-101 253.5zM563 584 q0 -113 75 -184.5t198 -71.5q162 0 317.5 113.5t212.5 275.5q27 70 27 133q0 113 -75 184.5t-198 71.5q-162 0 -317.5 -113.5t-214.5 -275.5q-25 -70 -25 -133z" />
<glyph unicode="r" d="M0 0l522 1434h891q141 0 224 -81t83 -210q0 -72 -26 -150q-68 -182 -244 -311t-358 -129h-74l313 -553h-205l-387 696h406q123 0 241.5 87t163.5 210q18 51 19 101q0 88 -56.5 142t-152.5 54h-748l-469 -1290h-143zM184 0l455 1249h707q82 0 130 -47t48 -123 q-1 -41 -15 -86q-39 -106 -141 -181t-209 -75h-442l117 144h378q55 0 107.5 47t52.5 104q0 74 -78 74h-563l-403 -1106h-144zM569 553l115 143l395 -696h-202z" />
<glyph unicode="s" d="M0 0l51 143h891q125 0 244 87t162 210q18 51 18 101q0 88 -56.5 142t-150.5 54h-450q-82 0 -130.5 47t-48.5 123q0 41 17 86q37 106 139 181t209 75h811l-115 -143h-747q-57 0 -109.5 -47t-52.5 -105q0 -73 78 -73h2h450q139 0 223.5 -81t84.5 -210q0 -72 -29 -150 q-66 -182 -242 -311t-358 -129h-891zM68 184l51 144h891q57 0 109 47t52 104q0 74 -79 74h-451q-139 0 -223 81t-84 210q0 72 28 149q66 182 242 311.5t359 129.5h890l-114 -144h-830q-123 0 -241.5 -87t-161.5 -210q-20 -51 -21 -100q0 -88 56.5 -142.5t152.5 -54.5h451 q82 0 130 -47t48 -123q0 -41 -16 -86q-37 -106 -139.5 -181t-209.5 -75h-890z" />
<glyph unicode="t" d="M403 1106l52 143h645l-455 -1249h-143l403 1106h-502zM469 1290l53 144h1331l-114 -144h-1270zM686 0l455 1249h565l-115 -143h-358l-404 -1106h-143z" />
<glyph unicode="u" d="M211 455q0 127 49 262l262 717h144l-263 -717q-38 -108 -38 -208v-5q0 -160 93 -260.5t259 -100.5q223 0 438 174q209 168 293 400l262 717h143l-262 -717q-104 -291 -370 -502q-274 -215 -555 -215q-213 0 -334 127t-121 328zM408 518q0 96 36 199l263 717h143 l-262 -717q-29 -78 -29 -152q0 -106 59.5 -171.5t165.5 -65.5q147 0 289 118q135 115 191 271l262 717h143l-262 -717q-78 -215 -270 -371q-199 -162 -404 -162q-154 0 -241 97q-84 90 -84 237z" />
<glyph unicode="v" horiz-adv-x="1617" d="M522 1434h164l100 -1291h66l1042 1291h164l-1157 -1434h-266zM727 1434h164l72 -902l727 902h163l-1007 -1250h-21z" />
<glyph unicode="w" horiz-adv-x="2232" d="M522 1434h164l100 -1291h66l502 621l47 -621h65l1043 1291h164l-1157 -1434h-267l-30 393l-318 -393h-266zM727 1434h164l72 -902l223 277l-49 625h163l50 -625l-504 -625h-21zM1341 1434h164l17 -209l168 209h163l-467 -578zM1391 809l503 625h164l-504 -625l23 -277 l727 902h164l-1008 -1250h-20z" />
<glyph unicode="x" horiz-adv-x="1515" d="M0 0l772 717l-250 717h185l249 -717l-772 -717h-184zM225 0l742 688l241 -688h-184l-152 430l-462 -430h-185zM748 1434h184l149 -430l465 430h185l-744 -689zM997 717l775 717h184l-774 -717l252 -717h-185z" />
<glyph unicode="y" horiz-adv-x="1515" d="M522 1434h185l249 -717l-260 -717h-143l242 666zM737 0l260 717l775 717h184l-834 -768l-241 -666h-144zM748 1434h184l149 -430l465 430h185l-744 -689z" />
<glyph unicode="z" d="M0 0l119 328l1046 778h-762l52 143h1147l-5 -10l-1376 -1024l-26 -72h1187l-51 -143h-1331zM252 184l4 11l1376 1024l25 71h-1188l53 144h1331l-118 -328l-1047 -778h762l-51 -144h-1147z" />
<glyph unicode="&#x2000;" horiz-adv-x="717" />
<glyph unicode="&#x2001;" horiz-adv-x="1434" />
<glyph unicode="&#x2002;" horiz-adv-x="717" />
<glyph unicode="&#x2003;" horiz-adv-x="1434" />
<glyph unicode="&#x2004;" horiz-adv-x="478" />
<glyph unicode="&#x2005;" horiz-adv-x="358" />
<glyph unicode="&#x2006;" horiz-adv-x="239" />
<glyph unicode="&#x2007;" horiz-adv-x="239" />
<glyph unicode="&#x2008;" horiz-adv-x="179" />
<glyph unicode="&#x2009;" horiz-adv-x="286" />
<glyph unicode="&#x200a;" horiz-adv-x="79" />
<glyph unicode="&#x202f;" horiz-adv-x="286" />
<glyph unicode="&#x205f;" horiz-adv-x="358" />
<glyph unicode="&#x25fc;" horiz-adv-x="1433" d="M0 0v1434h1434v-1434h-1434z" />
</font>
</defs>
</svg>
